<?xml version="1.0" encoding="utf-8"?>
<!-- Generator: Adobe Illustrator 25.0.1, SVG Export Plug-In . SVG Version: 6.00 Build 0)  -->
<svg version="1.1" id="Layer_1" xmlns="http://www.w3.org/2000/svg" xmlns:xlink="http://www.w3.org/1999/xlink" x="0px" y="0px"
	 viewBox="0 0 2048 2048" style="enable-background:new 0 0 2048 2048;" xml:space="preserve">
<style type="text/css">
	.st0{fill:url(#SVGID_1_);}
	.st1{fill:none;stroke:#DBADA9;stroke-width:16;stroke-miterlimit:10;}
	.st2{fill:none;stroke:#DBADA9;stroke-width:60;stroke-miterlimit:10;}
	.st3{fill:none;}
	.st4{fill:#FFFFFF;}
	.st5{fill:#A56056;}
	.st6{fill:#A56058;}
	.st7{fill:none;stroke:#A56058;stroke-width:12;stroke-miterlimit:10;}
	.st8{fill:#F49997;stroke:#A56058;stroke-width:14;stroke-miterlimit:10;}
	.st9{fill:#F8D6D5;}
	.st10{fill:none;stroke:#A66256;stroke-width:18;stroke-miterlimit:10;}
	.st11{fill:#FAE3E3;}
	.st12{fill:#81D278;stroke:#A56056;stroke-width:40;stroke-miterlimit:10;}
	.st13{fill:url(#SVGID_2_);}
	.st14{fill:#95DC8D;stroke:#A56056;stroke-width:40;stroke-miterlimit:10;}
	.st15{fill:#E97F71;}
	.st16{fill:#FB9B9A;}
	.st17{fill:#EA8073;}
	.st18{fill:none;stroke:#A56058;stroke-width:40;stroke-miterlimit:10;}
	.st19{fill:none;stroke:#A56058;stroke-width:16;stroke-miterlimit:10;}
</style>
<radialGradient id="SVGID_1_" cx="1618.7097" cy="214.4321" r="1992.0144" gradientTransform="matrix(1 0 0 -1 0 2048)" gradientUnits="userSpaceOnUse">
	<stop  offset="0.2945" style="stop-color:#A56058"/>
	<stop  offset="0.8106" style="stop-color:#FFFFFF"/>
</radialGradient>
<rect class="st0" width="2048" height="2048"/>
<path class="st1" d="M488.2,297.3c0,0,220,132.2,290.3,190.9"/>
<path class="st1" d="M947.5,219.9c0,0,220,132.2,290.3,190.9"/>
<path class="st1" d="M278,1538.1c0,0,220,132.2,290.3,190.9"/>
<path class="st2" d="M343.1,1714.4c0,0,220,132.2,290.3,190.9"/>
<path class="st1" d="M381.5,1378.7c0,0,220,132.2,290.3,190.9"/>
<path class="st2" d="M91.9,1727.9c0,0,361,165.4,476.4,239"/>
<path class="st2" d="M1631.6,519.1c0,0,284,215.7,374.8,311.5"/>
<path class="st2" d="M680.3,726.8c0,0,698.1,606.5,921.2,876.1"/>
<g>
	<path class="st3" d="M887.8,769.8c517.4-291,999.2-40.2,1160.2,63V0H0v2048h513.8C462.4,1857.4,301.5,1099.6,887.8,769.8z"/>
	<path class="st4" d="M887.8,769.8c-586.2,329.7-425.4,1087.6-374,1278.2H2048V832.9C1886.9,729.7,1405.1,478.8,887.8,769.8z"/>
</g>
<g>
	<path class="st3" d="M468.8,1942.7c-17.3-87.1-37.3-222-34.1-370.1c3.6-167.2,35.4-316.8,94.4-444.7
		C603.3,967.2,720.6,840.9,878,752.4c147.6-83,304.8-129.2,467-137.3c129.7-6.5,262.7,11.3,395.5,52.8
		c117.9,36.9,213.8,86,273.5,120.8c12.4,7.2,23.7,14.1,33.9,20.5V0H0v2048h493.1C486.1,2021.7,477.4,1985.9,468.8,1942.7z"/>
	<path class="st3" d="M1727.2,705.7c-201.1-62.6-508.2-99.2-829.6,81.6c-272.3,153.2-414.6,417.3-422.8,785.1
		c-3.2,144.4,16.2,276.3,33.1,361.4c9.6,48.5,19.5,87.7,26.7,114.2H2048V856.7c-15-9.9-33.5-21.5-55.3-34.1
		C1934.7,788.9,1841.6,741.3,1727.2,705.7z"/>
	<path class="st5" d="M1740.5,667.9c-132.8-41.5-265.9-59.3-395.5-52.8c-162.2,8.1-319.4,54.3-467,137.3
		c-157.3,88.5-274.7,214.8-348.8,375.4c-59,127.9-90.8,277.5-94.4,444.7c-3.2,148.1,16.8,283,34.1,370.1
		c8.6,43.3,17.3,79,24.3,105.3h41.5c-7.3-26.5-17.1-65.7-26.7-114.2c-16.9-85.1-36.3-217-33.1-361.4
		c8.2-367.7,150.5-631.9,422.8-785.1c321.4-180.8,628.6-144.2,829.6-81.6c114.4,35.6,207.6,83.2,265.6,116.9
		c21.7,12.6,40.3,24.3,55.3,34.1v-47.5c-10.3-6.4-21.6-13.3-33.9-20.5C1954.4,754,1858.4,704.8,1740.5,667.9z"/>
</g>
<path class="st6" d="M1249.3,887.4c-9.5,18.3-21.9,56.7,3.7,104.8c0.5,1,1.1,2,1.8,3c12.1,17,18.5,56.4,34,61.1
	c15.8,4.7,59.5,21.6,82.1-10.5c22.6-32.1,39.5-63.2-21.6-127.4c-32.6-34.3-56.8-44.1-72.3-45.8
	C1265.6,871.2,1254.6,877.2,1249.3,887.4z"/>
<path class="st7" d="M932.3,1233.6c0,0,43.9,107.2,116.3-62.2c0,0,178.5,11.2,136.9-85.2"/>
<path class="st8" d="M979.8,1267.3c0,0,164.2,378,275.3,271.7c111.1-106.3,4.7-298.2-110-374.2c0,0-28.4,16.2-95.2,9.3
	C1049.8,1174.2,1010.4,1257.2,979.8,1267.3z"/>
<path class="st6" d="M754.8,1189.8c0,0-37.4-7.7-44.5,77.3s69.2,131.9,80.3,127.9s26.2-7.9,36.6-18.3s18.3-45.3,9.5-103.4
	C828,1215.2,808.9,1158.8,754.8,1189.8z"/>
<ellipse transform="matrix(0.9012 -0.4334 0.4334 0.9012 -652.0696 412.0519)" class="st9" cx="577.7" cy="1636.2" rx="104.6" ry="54.2"/>
<path class="st10" d="M526.7,1643.8c0,0,34,17.7,42.9,19.5"/>
<path class="st10" d="M556.3,1626.4c0,0,27.1,12.8,34.2,14.2"/>
<path class="st10" d="M590.5,1603.5c0,0,34,17.7,42.9,19.5"/>
<ellipse transform="matrix(0.8162 -0.5777 0.5777 0.8162 -300.0692 1129.983)" class="st11" cx="1626.2" cy="1036.7" rx="111.1" ry="57.7"/>
<path class="st10" d="M1563.8,1047.6c0,0,36.1,18.8,45.5,20.8"/>
<path class="st10" d="M1595.3,1029.2c0,0,28.8,13.7,36.3,15.1"/>
<path class="st10" d="M1631.6,1004.7c0,0,36.1,18.8,45.5,20.8"/>
<path class="st12" d="M863.9,454.2c0,0-39.7,135.3,14.9,320.8"/>
<g>
	<path class="st3" d="M799.2,0c5.6,30.6,8.6,62.1,8.6,94.1c0,321.1-294.5,581.4-657.7,581.4c-51.6,0-101.8-5.3-150-15.2V2048h2048V0
		H799.2z"/>
	
		<radialGradient id="SVGID_2_" cx="-193.6152" cy="2501.8174" r="1351.1556" gradientTransform="matrix(1 0 0 -1 0 2048)" gradientUnits="userSpaceOnUse">
		<stop  offset="0" style="stop-color:#A56058"/>
		<stop  offset="0.8106" style="stop-color:#FFFFFF"/>
	</radialGradient>
	<path class="st13" d="M807.8,94.1c0-32-2.9-63.5-8.6-94.1H0v660.3c48.2,9.9,98.4,15.2,150,15.2C513.3,675.5,807.8,415.2,807.8,94.1
		z"/>
</g>
<path class="st14" d="M492.7,589.2C526.7,470,679.3,350.9,850,444.2c0,0,4.8,93.3-140.1,148.9S492.7,589.2,492.7,589.2z"/>
<path class="st14" d="M863.9,454.2c60.7-105.1,282.4-142.8,418.9-67.5c0,0-45,148.9-208.5,158.8
	C919.4,554.9,863.9,454.2,863.9,454.2z"/>
<path class="st15" d="M266.7,850.6c0,0,44.7-94,121.3-71.6c66.4,19.4,24,157.9-6.9,207.2c0,0-134.7,18.5-200-8.2
	C133.8,958.8,109.6,800.5,266.7,850.6z"/>
<path class="st15" d="M325.4,182.9c0,0,30.7-54.8,83.2-41.7c45.5,11.3,16.5,92.1-4.7,120.9c0,0-92.4,10.8-137.2-4.8
	C234.3,246,217.7,153.7,325.4,182.9z"/>
<path class="st16" d="M840,78.2c0,0,2.5-36.6,28.5-37.2c22.6-0.6,26.1,50.8,22.6,70.8c0,0-38.9,20.7-62,18.7
	C812.3,129,786.1,78.1,840,78.2z"/>
<path class="st17" d="M1489,105.2c0,0-46.9-28.6-81.7,0s8.2,75.5,63.3,85.7c55.1,10.2,77.3,26.5,92.7,20.4
	c15.4-6.1,27.2-87.8,31.5-104.1s-22.2-83.7-58.9-77.6C1499.2,35.8,1489,105.2,1489,105.2z"/>
<path class="st18" d="M145.4,1761.7c0,0,178.9,175.9,236.1,254"/>
<path class="st19" d="M47.2,1069.3c0,0,220,132.2,290.3,190.9"/>
<path class="st19" d="M1654.3,251.7c0,0,220,132.2,290.3,190.9"/>
<path class="st19" d="M97.1,488.2c0,0,49.9,27.9,65.9,40.3"/>
<g>
	<path class="st3" d="M0,1068.5v385.7c7.6,1,15.6,2.2,23.9,3.6c0,0,34.7-153.1,134.7-114.3s-4.1,243.7-44.9,319.9
		c0,0-56.2-2.6-113.7-5.4v160.7h284.3v-750.1H0z"/>
	<path class="st15" d="M158.6,1343.4c-100-38.8-134.7,114.3-134.7,114.3c-8.3-1.5-16.2-2.7-23.9-3.6v203.8
		c57.5,2.9,113.7,5.4,113.7,5.4C154.5,1587.2,258.6,1382.2,158.6,1343.4z"/>
</g>
</svg>
