<?xml version="1.0" encoding="utf-8"?>
<!-- Generator: Adobe Illustrator 25.0.1, SVG Export Plug-In . SVG Version: 6.00 Build 0)  -->
<svg version="1.1" xmlns="http://www.w3.org/2000/svg" xmlns:xlink="http://www.w3.org/1999/xlink" x="0px" y="0px"
	 viewBox="0 0 2048 2048" style="enable-background:new 0 0 2048 2048;" xml:space="preserve">
<style type="text/css">
	.st0{display:none;}
	.st1{clip-path:url(#SVGID_2_);}
	.st2{fill:url(#SVGID_3_);}
	.st3{fill:url(#SVGID_4_);}
	.st4{fill:none;stroke:#DBADA9;stroke-width:16;stroke-miterlimit:10;}
	.st5{fill:none;stroke:#DBADA9;stroke-width:60;stroke-miterlimit:10;}
	.st6{fill:#FFFFFF;}
	.st7{fill:#A56056;}
	.st8{fill:#A56058;}
	.st9{fill:none;stroke:#A56058;stroke-width:12;stroke-miterlimit:10;}
	.st10{fill:#F49997;stroke:#A56058;stroke-width:14;stroke-miterlimit:10;}
	.st11{fill:#F8D6D5;}
	.st12{fill:none;stroke:#A66256;stroke-width:18;stroke-miterlimit:10;}
	.st13{fill:#FAE3E3;}
	.st14{fill:#81D278;stroke:#A56056;stroke-width:40;stroke-miterlimit:10;}
	.st15{fill:#95DC8D;stroke:#A56056;stroke-width:40;stroke-miterlimit:10;}
	.st16{fill:#E97F71;}
	.st17{fill:#FB9B9A;}
	.st18{fill:#EA8073;}
	.st19{fill:none;stroke:#A56058;stroke-width:40;stroke-miterlimit:10;}
	.st20{fill:none;stroke:#A56058;stroke-width:16;stroke-miterlimit:10;}
</style>
<g id="Layer_1" class="st0">
</g>
<g id="Layer_3">
</g>
<g id="Layer_2">
</g>
<g id="Layer_4">
	<g>
		<defs>
			<rect id="SVGID_1_" x="0" width="2048" height="2048"/>
		</defs>
		<clipPath id="SVGID_2_">
			<use xlink:href="#SVGID_1_"  style="overflow:visible;"/>
		</clipPath>
		<g class="st1">
			<radialGradient id="SVGID_3_" cx="1618.7097" cy="1833.5679" r="1992.0144" gradientUnits="userSpaceOnUse">
				<stop  offset="0.2945" style="stop-color:#A56058"/>
				<stop  offset="0.8106" style="stop-color:#FFFFFF"/>
			</radialGradient>
			<rect x="-126.44" y="-50.86" class="st2" width="2302.29" height="2158.86"/>
			<radialGradient id="SVGID_4_" cx="-193.6152" cy="-453.8175" r="1351.1556" gradientUnits="userSpaceOnUse">
				<stop  offset="0" style="stop-color:#A56058"/>
				<stop  offset="0.8106" style="stop-color:#FFFFFF"/>
			</radialGradient>
			<ellipse class="st3" cx="150.03" cy="94.13" rx="657.72" ry="581.36"/>
			<path class="st4" d="M488.23,297.33c0,0,220.03,132.17,290.34,190.92"/>
			<path class="st4" d="M947.48,219.85c0,0,220.03,132.17,290.34,190.92"/>
			<path class="st4" d="M277.99,1538.06c0,0,220.03,132.17,290.34,190.92"/>
			<path class="st5" d="M343.06,1714.37c0,0,220.03,132.17,290.34,190.92"/>
			<path class="st4" d="M-32.57,2012.54c0,0,220.03,132.17,290.34,190.92"/>
			<path class="st5" d="M-14.81,1794.27c0,0,410.34,221.61,541.48,320.1"/>
			<path class="st5" d="M1631.6,519.1c0,0,376.66,279.43,497.03,403.63"/>
			<path class="st5" d="M680.29,726.78c0,0,698.11,606.51,921.2,876.07"/>
			<path class="st6" d="M2104.8,872.24c0,0-581.72-459.77-1217.05-102.4c-673.31,378.74-361.09,1322.27-361.09,1322.27L2128.63,2108
				L2104.8,872.24z"/>
			<path class="st7" d="M2149.02,2128.2l-1636.85-16.23l-4.49-13.57c-0.81-2.46-20.12-61.23-38.89-155.73
				c-17.3-87.08-37.26-221.98-34.06-370.09c3.61-167.21,35.37-316.84,94.4-444.73c74.14-160.63,191.5-286.94,348.83-375.43
				c147.64-83.05,304.76-129.25,467-137.31c129.65-6.45,262.73,11.33,395.54,52.84c117.92,36.85,213.85,86.01,273.55,120.76
				c64.94,37.8,101.63,66.64,103.16,67.85l7.41,5.86l0.18,9.45L2149.02,2128.2z M541.46,2072.26l1566.77,15.54l-23.24-1205.45
				c-13.64-10.06-45.65-32.7-92.25-59.76c-58-33.67-151.15-81.29-265.55-116.9c-201.06-62.58-508.2-99.23-829.63,81.58
				c-272.35,153.2-414.61,417.34-422.82,785.08c-3.22,144.45,16.2,276.28,33.07,361.43
				C521.01,2000.48,534.75,2049.75,541.46,2072.26z"/>
			<path class="st8" d="M1249.31,887.38c-9.46,18.35-21.86,56.71,3.67,104.76c0.54,1.02,1.14,2.03,1.82,2.97
				c12.12,16.96,18.5,56.43,33.97,61.07c15.79,4.74,59.49,21.59,82.13-10.53c22.64-32.11,39.49-63.18-21.59-127.41
				c-32.63-34.32-56.85-44.14-72.32-45.84C1265.57,871.15,1254.57,877.17,1249.31,887.38z"/>
			<path class="st9" d="M932.34,1233.6c0,0,43.9,107.19,116.32-62.25c0,0,178.51,11.19,136.92-85.16"/>
			<path class="st10" d="M979.79,1267.27c0,0,164.19,378.04,275.28,271.69c111.09-106.35,4.74-298.16-110.03-374.15
				c0,0-28.36,16.23-95.25,9.35C1049.78,1174.16,1010.39,1257.23,979.79,1267.27z"/>
			<path class="st8" d="M754.85,1189.77c0,0-37.38-7.67-44.53,77.28s69.18,131.87,80.32,127.89s26.24-7.95,36.58-18.29
				s18.29-45.33,9.54-103.38C828.01,1215.21,808.92,1158.75,754.85,1189.77z"/>
			
				<ellipse transform="matrix(0.9012 -0.4334 0.4334 0.9012 -652.0927 412.1159)" class="st11" cx="577.79" cy="1636.2" rx="104.65" ry="54.22"/>
			<path class="st12" d="M526.66,1643.78c0,0,34.04,17.65,42.87,19.54"/>
			<path class="st12" d="M556.35,1626.43c0,0,27.14,12.81,34.18,14.18"/>
			<path class="st12" d="M590.53,1603.5c0,0,34.04,17.65,42.87,19.54"/>
			
				<ellipse transform="matrix(0.8162 -0.5777 0.5777 0.8162 -300.0858 1129.9806)" class="st13" cx="1626.25" cy="1036.72" rx="111.13" ry="57.72"/>
			<path class="st12" d="M1563.83,1047.64c0,0,36.12,18.81,45.49,20.82"/>
			<path class="st12" d="M1595.33,1029.16c0,0,28.8,13.65,36.26,15.11"/>
			<path class="st12" d="M1631.6,1004.73c0,0,36.12,18.81,45.49,20.82"/>
			<path class="st14" d="M863.93,454.17c0,0-39.74,135.29,14.88,320.78"/>
			<path class="st15" d="M492.66,589.17c34-119.12,186.63-238.25,357.31-144.93c0,0,4.8,93.31-140.13,148.9
				S492.66,589.17,492.66,589.17z"/>
			<path class="st15" d="M863.93,454.17c60.67-105.05,282.35-142.81,418.92-67.5c0,0-45.02,148.9-208.47,158.83
				C919.44,554.91,863.93,454.17,863.93,454.17z"/>
			<path class="st16" d="M23.87,1457.76c0,0,34.7-153.09,134.72-114.31s-4.08,243.74-44.91,319.87c0,0-128.6-5.86-195.96-9.77
				S-251.69,1408.77,23.87,1457.76z"/>
			<path class="st16" d="M266.66,850.58c0,0,44.71-93.95,121.3-71.56c66.42,19.42,24.04,157.9-6.87,207.21
				c0,0-134.72,18.49-200.04-8.16C133.76,958.78,109.6,800.49,266.66,850.58z"/>
			<path class="st16" d="M325.43,182.91c0,0,30.66-54.81,83.19-41.74c45.55,11.33,16.49,92.11-4.71,120.88
				c0,0-92.39,10.79-137.19-4.76C234.29,246.03,217.72,153.69,325.43,182.91z"/>
			<path class="st17" d="M839.99,78.16c0,0,2.46-36.57,28.48-37.22c22.57-0.57,26.13,50.8,22.57,70.8c0,0-38.89,20.72-61.99,18.72
				C812.33,129.01,786.12,78.09,839.99,78.16z"/>
			<path class="st18" d="M1488.99,105.15c0,0-46.95-28.58-81.65,0s8.16,75.52,63.28,85.73c55.11,10.21,77.3,26.54,92.74,20.41
				c15.44-6.12,27.15-87.77,31.5-104.1c4.35-16.33-22.18-83.69-58.92-77.57C1499.2,35.75,1488.99,105.15,1488.99,105.15z"/>
			<path class="st19" d="M145.42,1761.73c0,0,174.63,264.34,230.44,381.83"/>
			<path class="st20" d="M47.18,1069.35c0,0,220.03,132.17,290.34,190.92"/>
			<path class="st20" d="M1654.34,251.7c0,0,220.03,132.17,290.34,190.92"/>
			<path class="st20" d="M97.11,488.25c0,0,49.93,27.9,65.89,40.3"/>
		</g>
	</g>
</g>
<g id="Layer_5">
</g>
</svg>
